#!OML:ASF F:\VICON\USERDATA\INSTALL\rory3\rory3.ASF
:FULLY-SPECIFIED
:DEGREES
53
root 0.21872925670890864 17.98223347737976 27.4448545485949 -4.019352123138052 -0.6722972641168908 -6.654579922863433
lfemur -17.11777581266955 1.8874708476648143 -13.029536122331772
ltibia 58.74480452429512
lfoot -2.4686304443094063 -5.171222895453142
ltoes -9.071490015308141
rfemur -11.015222297991434 3.511459391112207 32.04711708691126
rtibia 35.998620979434044
rfoot -9.131475202895915 -7.120131262019918
rtoes 5.091936990153309
lowerback 10.515352872549196 0.10173989710522387 2.8939539342778815
upperback 0.08295712868564839 0.9138935446660552 2.46067261234399
thorax -5.988127274981469 -0.017057719700607182 1.1977275501383897
lowerneck -16.476211920852066 -3.4128043657176472 -1.5529415250336929
upperneck 21.29850998444745 -4.312449524633363 1.673783246671152
head 9.48489125794581 -2.092050520598319 0.32667674671202573
lclavicle 2.999245089428613e-16 5.589843855200266e-17
lhumerus -30.30095705398055 1.7259374651277106 83.36297716561148
lradius 23.875953453289362
lwrist 7.358697304062808
lhand -29.085781635565827 20.186312651347297
lfingers 7.125020000000001
lthumb -2.325361184526645 50.80111690376015
rclavicle 2.980854381032863e-16 5.4577838047408657e-17
rhumerus -33.19965627008085 -23.954356188373552 -75.18553537358999
rradius 27.216298199139892
rwrist 4.626849814045737
rhand -17.994919981128806 23.152854972168644
rfingers 7.125020000000001
rthumb 8.031594237482189 -7.193812566022438
54
root 0.21914442038505355 17.94527565764406 28.16964802643559 -3.6588229477901755 -1.4858157080013163 -7.132378545102632
lfemur -20.977957764366796 2.75477447102935 -12.822541360807573
ltibia 58.60990341204442
lfoot -2.7484016097272397 -4.423808125451981
ltoes -9.005602737485756
rfemur -9.180480742220443 3.438527796635423 32.655592907684806
rtibia 34.22656520122266
rfoot -9.750551181978485 -6.999025978145637
rtoes 4.761348833813498
lowerback 10.613489778377696 0.43220644946962294 3.395457359534624
upperback 0.05566241206376207 1.4038653002300032 2.397146743686147
thorax -6.024873550580559 0.1978813815181555 0.7725981435096306
lowerneck -16.454856625899925 -3.443784555490325 -1.5179977358871284
upperneck 21.258080780519478 -4.302370412129655 1.7646958561807857
head 9.468593305637388 -2.1108174063405785 0.3260114289933128
lclavicle 2.999245090298377e-16 5.589843861445869e-17
lhumerus -31.036201623238842 2.2243811885280538 83.4722064484245
lradius 23.225956054321585
lwrist 7.446428693870803
lhand -29.140836382498215 19.89530670235216
lfingers 7.125020000000001
lthumb -2.450079281100383 50.369996278504324
rclavicle 2.980854381654537e-16 5.4577838092049833e-17
rhumerus -31.142898981335588 -21.21710047946643 -76.93290923787995
rradius 28.026013296950516
rwrist 3.9127678376347794
rhand -17.993612973032366 23.18989454625528
rfingers 7.125020000000001
rthumb 8.04573846947579 -7.159103075040331
55
root 0.22913035224843903 17.901671277312097 29.192383092700506 -3.1027295489255735 -2.267573584347691 -7.612404826548305
lfemur -24.29528352646812 3.0153538413143153 -12.58677050694881
ltibia 56.521008608831245
lfoot -4.054393633213927 -3.851595543805937
ltoes -8.97115213009371
rfemur -7.820880817268388 3.2796463160994103 33.23105323479997
rtibia 32.39537376370375
rfoot -9.964094139104782 -6.888765325127249
rtoes 4.206086845767217
lowerback 10.709719974248356 0.7390262925954875 3.993425707836651
upperback 0.010018126784520465 1.8722545441029148 2.3347803888784204
thorax -6.053525029718972 0.397120064935701 0.2654382589612416
lowerneck -16.427581009717294 -3.4719703590113857 -1.5056348852213035
upperneck 21.219674269132906 -4.308927175135412 1.8263947296891896
head 9.45999613069711 -2.1184911319914366 0.33080490980643684
lclavicle 2.9992450904141935e-16 5.589843862277524e-17
lhumerus -32.00050870146071 2.706178584361915 83.39890458522659
lradius 22.56916137717043
lwrist 7.436748654780177
lhand -29.029360258358476 20.224358557000983
lfingers 7.125020000000001
lthumb -2.3619322359496584 50.63793440947288
rclavicle 2.980854380924287e-16 5.457783803961199e-17
rhumerus -29.139108642164995 -18.42472698971011 -78.39831765217747
rradius 28.552142672510563
rwrist 3.1567000202160926
rhand -18.013070651968157 23.221603231685993
rfingers 7.125020000000001
rthumb 8.020054526379447 -7.112572166909138
56
root 0.24264625815016322 17.855070205055064 30.153507057082233 -2.4127698925002505 -3.0563430431620744 -8.110963067789458
lfemur -26.857811993170586 2.6731079828447015 -12.273579776387049
ltibia 52.73704519755228
lfoot -3.9296847919643962 -2.3829186428613847
ltoes -8.776165552486395
rfemur -5.93394281276648 3.3896541048540896 33.822517038898496
rtibia 30.928276152340963
rfoot -9.883931828498884 -6.895361978859443
rtoes 3.701075200343083
lowerback 10.747524152874483 1.0098889850883088 4.548036346593467
upperback -0.02769446058878766 2.4053937438451745 2.3222286335085816
thorax -6.071198834015545 0.5937825489639926 -0.22730675540725565
lowerneck -16.449444819295227 -3.5340044644755197 -1.5528762978777901
upperneck 21.153305378536377 -4.347651203901443 1.8582359515955267
head 9.432320928510624 -2.1317820452465757 0.32116432357090896
lclavicle 2.999245091717595e-16 5.589843871636994e-17
lhumerus -32.963500622473696 3.4855552751465924 83.1848293366656
lradius 21.961789080231938
lwrist 7.394600855059166
lhand -29.11840524193106 19.920126338617443
lfingers 7.125020000000001
lthumb -2.484054819935068 50.20139824363466
rclavicle 2.980854381453182e-16 5.457783807759093e-17
rhumerus -27.311842686003825 -16.070803542534325 -79.41839487684805
rradius 28.873246459190604
rwrist 2.543911017858281
rhand -18.058172277567163 23.155563922005328
rfingers 7.125020000000001
rthumb 8.040913894712734 -6.984149531011375
57
root 0.26893771808694295 17.80992017904307 31.576624149084616 -1.651733569939802 -3.749336200682635 -8.431826339692181
lfemur -28.321160337802787 1.5895411922555827 -11.771755080892515
ltibia 47.351000263657816
lfoot -5.59546415087755 -3.0102713903650646
ltoes -8.598737889070469
rfemur -3.5879183594388415 3.60815247793954 34.345076140476614
rtibia 30.036635004549087
rfoot -10.001324334051592 -7.121430324125387
rtoes 3.1027897085058207
lowerback 10.68858497962612 1.2590982344113457 5.120169633592401
upperback -0.07681087253619794 2.8605257621900524 2.304889264408492
thorax -6.094038941687397 0.7375740629762576 -0.7412172788581362
lowerneck -16.45993280798649 -3.594356289438062 -1.6163414455276839
upperneck 21.102561306737236 -4.375246591991391 1.918617401869251
head 9.420307841234724 -2.1302309403242403 0.3270566799589224
lclavicle 2.999245091500243e-16 5.589843870076231e-17
lhumerus -33.849621854768806 4.302071910461495 82.88243839338121
lradius 21.532019184360564
lwrist 7.115901093331639
lhand -28.98916253581122 20.317631218947053
lfingers 7.125020000000001
lthumb -2.366222933982668 50.53154937490489
rclavicle 2.980854380995219e-16 5.457783804470552e-17
rhumerus -25.74819264382943 -14.331601813084081 -80.04262718571408
rradius 29.040806359183208
rwrist 2.171746754960242
rhand -18.05718177376791 23.170042538679287
rfingers 7.125020000000001
rthumb 8.038461498499222 -6.92019293677387
58
root 0.303395833231771 17.76008530456726 33.0771924288254 -0.999397569010936 -4.351915813305386 -8.55781555838
lfemur -28.354247525253804 -0.5163486685697569 -10.867189886644729
ltibia 40.270102436804976
lfoot -5.087740514533068 -2.048268679500706
ltoes -9.439146778292736
rfemur -1.1656587090522397 3.7354861584794534 34.6282451084411
rtibia 29.75290453098657
rfoot -10.183069116217416 -7.409170362890269
rtoes 2.421213440118502
lowerback 10.526033291735507 1.4750849420052399 5.586909522023447
upperback -0.14348875234345765 3.0954530781126133 2.257481223821081
thorax -6.085630413239783 0.8791986250238991 -1.050878566677776
lowerneck -16.461704922130732 -3.6328788762373216 -1.676292276648493
upperneck 21.035581067623728 -4.412331765173921 1.9234745575481562
head 9.403778328825146 -2.1260090506742397 0.33186487348268146
lclavicle 2.9992450947814004e-16 5.589843893637575e-17
lhumerus -34.483507071261876 5.136899179722227 82.6050922506244
lradius 21.285381727068984
lwrist 6.811225056596774
lhand -29.12118246044435 19.9179266761632
lfingers 7.125020000000001
lthumb -2.4540077929053616 50.17587169143701
rclavicle 2.9808543823496224e-16 5.457783814196255e-17
rhumerus -24.224172536088545 -13.068515571782742 -80.38702456019739
rradius 29.20655644089183
rwrist 1.948746879455057
rhand -18.063780923874965 23.19761058683769
rfingers 7.125020000000001
rthumb 8.032162641059639 -6.876829699253562
